<svg xmlns="http://www.w3.org/2000/svg" viewBox="0 0 900 520"><rect width="900" height="520" fill="#dcecf6"/><path d="M0 330c170-80 270-35 430-70s310-130 470-70v330H0z" fill="#7fb66b"/><path d="M0 380c190-55 340-10 480-60s260-70 420-30v230H0z" fill="#407b3b"/><circle cx="720" cy="92" r="62" fill="#fcb82a"/><g fill="#1b1b1b"><path d="M130 350l80-160 80 160z" fill="#fff3dd" stroke="#111" stroke-width="12"/><path d="M210 190v160" stroke="#111" stroke-width="10"/><path d="M590 345l70-160 70 160zM625 270h70M605 310h110" fill="#111"/></g><g transform="translate(355 300)"><path d="M20 90c45-70 100-70 145 0" fill="#fcb82a"/><path d="M55 55l35 45M120 55l-35 45" stroke="#b5421e" stroke-width="12" stroke-linecap="round"/></g></svg>
