<svg xmlns="http://www.w3.org/2000/svg" viewBox="0 0 900 520"><defs><linearGradient id="g" x1="0" x2="1"><stop stop-color="#fff3dc"/><stop offset="1" stop-color="#f6f6f6"/></linearGradient></defs><rect width="900" height="520" fill="url(#g)"/><rect y="330" width="900" height="190" fill="#e8d1a3"/><g transform="translate(80 220)"><g fill="#111"><rect x="0" y="80" width="740" height="160" rx="12" opacity=".08"/><path d="M40 120h110v110H40zM260 120h110v110H260zM480 120h110v110H480zM700 120h110v110H700z" opacity=".18"/><path d="M150 120h110v110H150zM370 120h110v110H370zM590 120h110v110H590z" opacity=".35"/></g></g><g transform="translate(180 120)"><circle cx="95" cy="42" r="38" fill="#1d1d1d"/><path d="M72 82h48l15 90H57z" fill="#1d1d1d"/><circle cx="390" cy="45" r="36" fill="#fcb82a"/><path d="M365 82h50l17 92h-84z" fill="#fcb82a"/><circle cx="605" cy="42" r="37" fill="#141414"/><path d="M582 82h48l15 90h-78z" fill="#141414"/></g><g opacity=".3"><circle cx="130" cy="90" r="40" fill="#fcb82a"/><circle cx="760" cy="110" r="60" fill="#fcb82a"/></g></svg>
