<svg xmlns="http://www.w3.org/2000/svg" viewBox="0 0 900 520"><rect width="900" height="520" fill="#eaf6e8"/><rect y="330" width="900" height="190" fill="#79b65f"/><path d="M0 360c170-80 290-10 450-50s250-100 450-20v230H0z" fill="#5a9f46"/><circle cx="700" cy="96" r="56" fill="#fcb82a"/><g stroke="#fff" stroke-width="8" opacity=".85"><path d="M70 430h760M150 350c80 80 170 80 250 0s170-80 250 0" fill="none"/></g><g fill="#111"><circle cx="240" cy="190" r="28"/><path d="M230 220l-35 95M238 235l68 34M220 286l-70 58M255 300l48 78" stroke="#111" stroke-width="18" stroke-linecap="round" fill="none"/><circle cx="525" cy="225" r="24"/><path d="M520 252l-25 80M528 266l70 25M505 325l-55 55M540 330l55 62" stroke="#111" stroke-width="16" stroke-linecap="round" fill="none"/></g><circle cx="650" cy="390" r="36" fill="#fff" stroke="#111" stroke-width="8"/></svg>
